# xmcd
#
# Track frame offsets:
#	150
#	10982
#	27504
#	46285
#	60266
#	79632
#	84543
#	95980
#	123247
#	135104
#	152915
#	172756
#
# Disc length: 2507 seconds
#
# Revision: 0
# Processed by: cddbd v1.5.2PL0 Copyright (c) Steve Scherf et al.
# Submitted via: audiograbber 1.82.02
#
DISCID=8809c90c
DTITLE=Dia del Mercado - Seven Years of Dirt
DYEAR=2012
DGENRE=
TTITLE0=Opening Scene
TTITLE1=Grain of Sand
TTITLE2=Sulphur Lake
TTITLE3=Rain and Fire - part one: the Town
TTITLE4=Rain and Fire - part two: the Forest
TTITLE5=Intermezzo: the Wind
TTITLE6=Rain and Fire - part three: the Sea
TTITLE7=Market Day
TTITLE8=Dance of Unanswered Longing
TTITLE9=Fear of Flying
TTITLE10=Town of Crumbling Walls
TTITLE11=Western Slide - Closing Scene
EXTD=
EXTT0=
EXTT1=
EXTT2=
EXTT3=
EXTT4=
EXTT5=
EXTT6=
EXTT7=
EXTT8=
EXTT9=
EXTT10=
EXTT11=
PLAYORDER=
